<?xml version="1.0" encoding="utf-8"?>
<!-- Generator: Adobe Illustrator 22.0.1, SVG Export Plug-In . SVG Version: 6.00 Build 0)  -->
<svg version="1.1" id="Calque_1" xmlns="http://www.w3.org/2000/svg" xmlns:xlink="http://www.w3.org/1999/xlink" x="0px" y="0px"
	 viewBox="0 0 271.5 55.5" style="enable-background:new 0 0 271.5 55.5;" xml:space="preserve">
<path d="M203.8,11.2c0-0.5,0.2-0.9,0.5-1.3c0.7-0.7,1.9-0.7,2.6,0c0.6,0.6,0.7,1.7,0.2,2.4l-3.7,4.9L203.8,11.2L203.8,11.2z
	 M144.6,37.4c-3.9,0-7-3.2-7-7c0-3.9,3.2-7,7-7c3.9,0,7,3.2,7,7C151.6,34.3,148.4,37.4,144.6,37.4z M267.6,28.7l-2.8-2.8
	c-0.3-0.3-0.7-0.3-0.9,0c0,0,0,0,0,0l-3.8,3.9c-0.4-1.1-1.1-2.2-1.8-3.1l-7.2-8.6c-0.2-0.3-0.7-0.3-0.9-0.1c0,0,0,0,0,0l-16.7,17.3
	c-2.8,2.7-7.2,2.7-10,0c-2.7-2.8-2.7-7.2,0-10c2-2,5.1-2.6,7.7-1.5l-6.5,6.5c-0.3,0.3-0.3,0.7,0,0.9c0,0,0,0,0,0l2.8,2.8
	c0.3,0.3,0.7,0.3,0.9,0L238.5,24c0.3-0.3,0.3-0.7,0-0.9c0,0,0,0,0,0l-1.4-1.4c-4.8-4.8-12.6-4.8-17.5-0.1l0,0l-15.1,15.7
	c-0.1,0.1-0.2,0.2-0.3,0.2c-0.2,0-0.4-0.2-0.4-0.4V23.6l6.8-7.2l0.1-0.1c1.3-1.3,2.1-3.2,2.1-5.1c0-1.9-0.8-3.7-2.1-5.1
	c-2.8-2.8-7.3-2.8-10.1,0c-1.3,1.3-2.1,3.2-2.1,5.1v10.2l-13.1,13.9c-2.8,2.8-7.5,2.7-10.2-0.3c-2.3-2.5-2.4-6.4-0.3-9l0.6-0.6
	c2.6-2.6,6.7-2.8,9.5-0.5c0.3,0.2,0.7,0.2,0.9,0l2.9-2.9c0.3-0.3,0.3-0.7,0-1c0,0,0,0,0,0c-4.9-4.3-12.4-4.2-17,0.5
	c-0.3,0.3-0.7,0.7-0.9,1.1l-12.8,14.5l-0.1,0.1c-0.1,0.2-0.4,0.2-0.6,0.1c-0.1-0.1-0.2-0.2-0.2-0.3v-6.6c0-6.8-5.6-12.4-12.4-12.4
	c-3.4,0-6.4,1.4-8.7,3.6l0,0l-15.1,15.7c-0.1,0.1-0.2,0.2-0.3,0.2c-0.2,0-0.4-0.2-0.4-0.4l0,0V24.2h7.1c0.4,0,0.7-0.3,0.7-0.7v-4
	c0-0.4-0.3-0.7-0.7-0.7H120V7.2c0-0.4-0.3-0.7-0.7-0.7c0,0,0,0-0.1,0l-4,0.3c-0.3,0-0.6,0.3-0.6,0.7v16.5l-10.8,11.3
	c-2.7,2.7-7.2,2.7-10,0c-2.7-2.7-2.7-7.2,0-10l0,0c2.6-2.6,6.7-2.7,9.5-0.4c0.3,0.2,0.7,0.2,0.9,0l2.9-2.9c0.3-0.3,0.3-0.7,0-1
	c0,0,0,0,0,0c-4.9-4.3-12.4-4.2-17,0.5l0,0L76.6,35.4c-2.8,2.7-7.2,2.7-10,0c-2.7-2.7-2.7-7.2,0-10c2-2,5.1-2.6,7.7-1.5l-6.5,6.5
	c-0.3,0.3-0.3,0.7,0,0.9c0,0,0,0,0,0l2.8,2.8c0.3,0.3,0.7,0.3,0.9,0L81.8,24c0.3-0.3,0.3-0.7,0-0.9c0,0,0,0,0,0l-1.4-1.4
	c-4.8-4.8-12.7-4.8-17.5,0l0,0L56,28.3C55,22.8,50.3,18.4,44.6,18c-3.5-0.3-6.9,1-9.5,3.4v0l-7.6,7.5c-1.2-5.1-5.8-8.8-11.3-8.8
	c-3,0-5.5-2.4-5.5-5.3s2.5-5.3,5.5-5.3c2.7,0,5,1.9,5.4,4.4c0.1,0.3,0.4,0.6,0.7,0.6l4-0.3c0.4,0,0.6-0.4,0.6-0.7c0,0,0,0,0,0
	c-0.7-5.2-5.3-9.3-10.8-9.3c-6,0-10.9,4.8-10.9,10.7s4.9,10.7,10.9,10.7c3.4,0,6.2,2.7,6.2,6c0,3.3-2.8,6-6.2,6
	c-3.1,0-5.6-2.2-6.1-5c-0.1-0.3-0.4-0.6-0.7-0.6l-4,0.3c-0.4,0-0.6,0.4-0.6,0.7c0,0,0,0,0,0c0.8,5.6,5.6,9.9,11.5,9.9
	c3.1,0,5.9-1.2,8-3.1h0c0.1-0.1,0.2-0.2,0.4-0.4l6.7-6.6v18.9c0,0.4,0.3,0.7,0.7,0.7h4c0.4,0,0.7-0.3,0.7-0.7c0,0,0,0,0,0V30.4h0
	c0-4,3.4-7.2,7.4-7c3.6,0.2,6.5,3.1,6.7,6.7c0.2,3.8-2.7,7.1-6.4,7.4c-0.3,0-0.6,0.3-0.6,0.7v4c0,0.4,0.3,0.7,0.7,0.7
	c3-0.2,5.8-1.4,8-3.5l0,0l7-6.8c1,6,6.2,10.3,12.2,10.3c3.2,0,6.4-1.2,8.8-3.6l6.3-6.4c0.5,2.4,1.7,4.7,3.4,6.4
	c2.3,2.3,5.5,3.6,8.8,3.6c3.2,0,6.4-1.2,8.8-3.6l7-7.4v5c0,3.2,2.5,5.9,5.8,5.9c1.7,0,3.4-0.7,4.5-2.1l7.6-7.9
	c1.1,5.7,6.2,9.9,12.2,9.9c3,0,5.7-1.1,7.9-2.8c1,1.7,2.9,2.8,4.9,2.8c1.7,0,3.4-0.8,4.5-2.1l6.4-7.2c0.5,2.2,1.7,4.2,3.3,5.8
	c2.3,2.3,5.5,3.6,8.8,3.6c3.2,0,6.4-1.2,8.8-3.6l9.5-10.6l-0.1,8.2c0,3.2,2.5,5.9,5.8,5.9c1.7,0,3.4-0.7,4.5-2.1l7.6-7.9
	c0.5,2.4,1.7,4.6,3.4,6.3c2.3,2.3,5.5,3.6,8.8,3.6c3.2,0,6.4-1.2,8.8-3.6l12.9-13.7L254,30l0,0.1c1.7,2.1,1.8,3.9,0.3,5.7
	c-0.8,0.9-1.8,1.5-3,1.7c-1.1,0.1-2.1-0.2-2.9-0.8c-0.3-0.2-0.6-0.2-0.9,0l-2.9,2.9c-0.3,0.3-0.3,0.7,0,1c0,0,0,0,0,0
	c1.7,1.5,3.9,2.3,6.2,2.3c2.6,0,5-1,6.8-2.8l9.9-10.3C267.9,29.4,267.9,29,267.6,28.7C267.6,28.7,267.6,28.7,267.6,28.7L267.6,28.7z
	"/>
</svg>
