<?xml version="1.0" encoding="utf-8"?>
<!-- Generator: Adobe Illustrator 22.0.1, SVG Export Plug-In . SVG Version: 6.00 Build 0)  -->
<svg version="1.1" id="Calque_1" xmlns="http://www.w3.org/2000/svg" xmlns:xlink="http://www.w3.org/1999/xlink" x="0px" y="0px"
	 viewBox="0 0 58 58" style="enable-background:new 0 0 58 58;" xml:space="preserve">
<style type="text/css">
	.st0{fill:#FFFFFF;}
</style>
<path class="st0" d="M49.5,29c0,11.3-9.2,20.5-20.5,20.5S8.5,40.3,8.5,29S17.7,8.5,29,8.5S49.5,17.7,49.5,29"/>
<path d="M29,9.4C18.2,9.4,9.4,18.2,9.4,29S18.2,48.6,29,48.6c10.8,0,19.6-8.8,19.6-19.6S39.8,9.4,29,9.4 M29,52C16.3,52,6,41.7,6,29
	C6,16.3,16.3,6,29,6c12.7,0,23,10.3,23,23C52,41.7,41.7,52,29,52"/>
<path d="M29,14.3c-3.4,0-6.5,1.1-8.9,3c1.8,2.4,1.3,5.7-1.1,7.4c-1.2,0.9-2.8,1.3-4.3,0.9c-0.2,1.1-0.4,2.2-0.4,3.2
	c0,8.1,6.6,14.7,14.7,14.7S43.7,37.1,43.7,29C43.7,20.9,37.1,14.3,29,14.3"/>
</svg>
